<?xml version="1.0" encoding="UTF-8"?>
<svg xmlns="http://www.w3.org/2000/svg" viewBox="0 0 24 24" width="48" height="48" fill="none">
  <path d="M17.6 14.25c-.3-.15-1.77-.87-2.05-.97-.28-.1-.48-.15-.68.15-.2.3-.78.97-.96 1.17-.18.2-.36.23-.66.08-.3-.15-1.27-.47-2.42-1.49-.9-.8-1.5-1.78-1.68-2.08-.18-.3-.02-.46.13-.61.13-.13.3-.34.44-.51.15-.16.2-.28.3-.46.1-.18.05-.34-.02-.49-.07-.15-.68-1.64-.93-2.25-.23-.59-.47-.5-.66-.51l-.56-.01c-.18 0-.47.07-.72.34-.25.27-.96.94-.96 2.3 0 1.36.99 2.68 1.12 2.87.12.2 1.93 3.07 4.68 4.3 1.37.59 2.44.94 3.28 1.2 1.38.41 2.64.35 3.63.21.11-.03 1.77-.72 2.02-1.41.25-.69.25-1.28.18-1.41-.07-.13-.27-.2-.57-.35z" fill="#25D366"/>
  <path d="M12 2C6.48 2 2 6.48 2 12c0 1.85.5 3.58 1.37 5.07L2 22l5.07-1.35A9.96 9.96 0 0 0 12 22c5.52 0 10-4.48 10-10S17.52 2 12 2zm0 18a7.94 7.94 0 0 1-4.07-1.12l-.29-.17-3.01.8.81-2.95-.19-.3A7.96 7.96 0 0 1 4 12c0-4.41 3.59-8 8-8s8 3.59 8 8-3.59 8-8 8z" fill="#25D366"/>
</svg>
